<?xml version="1.0" encoding="UTF-8" standalone="no"?>
<!-- Created with Inkscape (http://www.inkscape.org/) -->

<svg
   xmlns:dc="http://purl.org/dc/elements/1.1/"
   xmlns:cc="http://creativecommons.org/ns#"
   xmlns:rdf="http://www.w3.org/1999/02/22-rdf-syntax-ns#"
   xmlns:svg="http://www.w3.org/2000/svg"
   xmlns="http://www.w3.org/2000/svg"
   xmlns:sodipodi="http://sodipodi.sourceforge.net/DTD/sodipodi-0.dtd"
   xmlns:inkscape="http://www.inkscape.org/namespaces/inkscape"
   width="63.445503mm"
   height="20.847916mm"
   viewBox="0 0 63.445503 20.847916"
   version="1.1"
   id="svg8"
   inkscape:version="0.92.4 (5da689c313, 2019-01-14)"
   sodipodi:docname="cs-logo-neg-mono.svg"
   style="shape-rendering:crispEdges"
   inkscape:export-filename="C:\work\checksig\checksig-custody.github.io-master\img\logos\cs-logo-neg-mono-text.png"
   inkscape:export-xdpi="190.10001"
   inkscape:export-ydpi="190.10001">
  <defs
     id="defs2" />
  <sodipodi:namedview
     id="base"
     pagecolor="#ffffff"
     bordercolor="#666666"
     borderopacity="1.0"
     inkscape:pageopacity="0.0"
     inkscape:pageshadow="2"
     inkscape:zoom="5.6"
     inkscape:cx="123.4209"
     inkscape:cy="94.916298"
     inkscape:document-units="mm"
     inkscape:current-layer="layer1"
     showgrid="false"
     borderlayer="true"
     showborder="true"
     inkscape:window-width="1817"
     inkscape:window-height="2131"
     inkscape:window-x="4208"
     inkscape:window-y="-9"
     inkscape:window-maximized="0"
     fit-margin-top="5"
     fit-margin-left="5"
     fit-margin-right="5"
     fit-margin-bottom="5" />
  <metadata
     id="metadata5">
    <rdf:RDF>
      <cc:Work
         rdf:about="">
        <dc:format>image/svg+xml</dc:format>
        <dc:type
           rdf:resource="http://purl.org/dc/dcmitype/StillImage" />
        <dc:title></dc:title>
      </cc:Work>
    </rdf:RDF>
  </metadata>
  <g
     inkscape:label="Layer 1"
     inkscape:groupmode="layer"
     id="layer1"
     transform="translate(-14.772912,-41.306194)">
    <g
       aria-label="CheckSig"
       transform="scale(0.26458333)"
       style="font-style:normal;font-variant:normal;font-weight:900;font-stretch:normal;font-size:40px;line-height:1.25;font-family:Montserrat;-inkscape-font-specification:'Montserrat, Heavy';font-variant-ligatures:normal;font-variant-caps:normal;font-variant-numeric:normal;font-feature-settings:normal;text-align:start;letter-spacing:0px;word-spacing:0px;writing-mode:lr-tb;text-anchor:start;fill:#000000;fill-opacity:1;stroke:none"
       id="flowRoot815">
      <path
         d="m 90.332266,208.49554 q -4.44,0 -8,-1.84 -3.56,-1.88 -5.6,-5.2 -2,-3.36 -2,-7.6 0,-4.24 2,-7.56 2.04,-3.36 5.6,-5.2 3.56,-1.88 8,-1.88 4.08,0 7.28,1.44 3.200004,1.44 5.280004,4.16 l -5.960004,5.32 q -2.6,-3.28 -6.12,-3.28 -2.96,0 -4.76,1.92 -1.8,1.88 -1.8,5.08 0,3.2 1.8,5.12 1.8,1.88 4.76,1.88 3.52,0 6.12,-3.28 l 5.960004,5.32 q -2.08,2.72 -5.280004,4.16 -3.2,1.44 -7.28,1.44 z"
         style="fill:#ffffff;fill-opacity:1"
         id="path819" />
      <path
         d="m 120.53789,185.57554 q 4.04,0 6.48,2.44 2.48,2.44 2.48,7.36 v 12.48 h -9.04 v -10.92 q 0,-3.76 -2.68,-3.76 -1.52,0 -2.48,1.08 -0.92,1.04 -0.92,3.32 v 10.28 h -9.04 v -29.68 h 9.04 v 9.56 q 2.52,-2.16 6.16,-2.16 z"
         style="fill:#ffffff;fill-opacity:1"
         id="path821" />
      <path
         d="m 157.05539,196.89554 q 0,0.2 -0.12,2.12 h -15.2 q 0.48,1.24 1.6,1.92 1.12,0.64 2.8,0.64 1.44,0 2.4,-0.36 1,-0.36 2.16,-1.24 l 4.72,4.76 q -3.2,3.52 -9.56,3.52 -3.96,0 -6.96,-1.44 -3,-1.48 -4.64,-4.08 -1.64,-2.6 -1.64,-5.84 0,-3.28 1.6,-5.84 1.64,-2.6 4.44,-4.04 2.84,-1.44 6.36,-1.44 3.32,0 6.04,1.32 2.76,1.32 4.36,3.88 1.64,2.56 1.64,6.12 z m -11.96,-5.16 q -1.4,0 -2.32,0.76 -0.92,0.76 -1.2,2.16 h 7.04 q -0.28,-1.36 -1.2,-2.12 -0.92,-0.8 -2.32,-0.8 z"
         style="fill:#ffffff;fill-opacity:1"
         id="path823" />
      <path
         d="m 171.62914,208.25554 q -3.72,0 -6.68,-1.44 -2.92,-1.44 -4.6,-4.04 -1.64,-2.6 -1.64,-5.88 0,-3.28 1.64,-5.84 1.68,-2.6 4.6,-4.04 2.96,-1.44 6.68,-1.44 4,0 6.84,1.72 2.84,1.72 3.92,4.76 l -7,3.44 q -1.28,-2.88 -3.8,-2.88 -1.6,0 -2.68,1.12 -1.04,1.12 -1.04,3.16 0,2.08 1.04,3.2 1.08,1.12 2.68,1.12 2.52,0 3.8,-2.88 l 7,3.44 q -1.08,3.04 -3.92,4.76 -2.84,1.72 -6.84,1.72 z"
         style="fill:#ffffff;fill-opacity:1"
         id="path825" />
      <path
         d="m 194.95852,201.13554 -1.44,1.56 v 5.16 h -9.04 v -29.68 h 9.04 v 14.16 l 6.28,-6.36 h 10.68 l -9.04,9.48 9.76,12.4 h -10.92 z"
         style="fill:#ffffff;fill-opacity:1"
         id="path827" />
      <path
         d="m 223.71414,208.49554 q -3.48,0 -6.8,-0.76 -3.28,-0.8 -5.4,-2.12 l 3.04,-6.88 q 2,1.16 4.48,1.88 2.48,0.68 4.76,0.68 1.96,0 2.8,-0.36 0.84,-0.4 0.84,-1.16 0,-0.88 -1.12,-1.32 -1.08,-0.44 -3.6,-0.96 -3.24,-0.68 -5.4,-1.44 -2.16,-0.8 -3.76,-2.56 -1.6,-1.8 -1.6,-4.84 0,-2.64 1.48,-4.8 1.48,-2.16 4.4,-3.4 2.96,-1.24 7.16,-1.24 2.88,0 5.64,0.64 2.8,0.6 4.92,1.8 l -2.84,6.84 q -4.12,-2.08 -7.8,-2.08 -3.64,0 -3.64,1.76 0,0.84 1.08,1.28 1.08,0.4 3.56,0.88 3.2,0.6 5.4,1.4 2.2,0.76 3.8,2.52 1.64,1.76 1.64,4.8 0,2.64 -1.48,4.8 -1.48,2.12 -4.44,3.4 -2.92,1.24 -7.12,1.24 z"
         style="fill:#ffffff;fill-opacity:1"
         id="path829" />
      <path
         d="m 239.24414,185.97554 h 9.04 v 21.88 h -9.04 z m 4.52,-1.76 q -2.44,0 -3.96,-1.28 -1.48,-1.32 -1.48,-3.32 0,-2 1.48,-3.28 1.52,-1.32 3.96,-1.32 2.48,0 3.96,1.24 1.48,1.24 1.48,3.2 0,2.08 -1.48,3.44 -1.48,1.32 -3.96,1.32 z"
         style="fill:#ffffff;fill-opacity:1"
         id="path831" />
      <path
         d="m 276.73102,185.97554 v 17.52 q 0,6.24 -3.48,9.36 -3.44,3.16 -9.84,3.16 -3.28,0 -6.12,-0.72 -2.84,-0.68 -4.84,-2 l 3.04,-6.16 q 1.28,0.96 3.24,1.56 1.96,0.6 3.76,0.6 2.72,0 3.96,-1.16 1.24,-1.16 1.24,-3.4 v -0.4 q -2.04,2.32 -6.04,2.32 -2.8,0 -5.24,-1.28 -2.4,-1.32 -3.84,-3.72 -1.44,-2.44 -1.44,-5.56 0,-3.12 1.44,-5.52 1.44,-2.4 3.84,-3.68 2.44,-1.32 5.24,-1.32 4.48,0 6.48,2.88 v -2.48 z m -12.68,13.64 q 1.6,0 2.64,-0.96 1.08,-1 1.08,-2.56 0,-1.56 -1.08,-2.52 -1.04,-0.96 -2.64,-0.96 -1.64,0 -2.72,0.96 -1.04,0.96 -1.04,2.52 0,1.56 1.08,2.56 1.08,0.96 2.68,0.96 z"
         style="fill:#ffffff;fill-opacity:1"
         id="path833" />
    </g>
  </g>
</svg>
