<?xml version="1.0" encoding="UTF-8" standalone="no"?>
<!-- Created with Inkscape (http://www.inkscape.org/) -->

<svg
   xmlns:dc="http://purl.org/dc/elements/1.1/"
   xmlns:cc="http://creativecommons.org/ns#"
   xmlns:rdf="http://www.w3.org/1999/02/22-rdf-syntax-ns#"
   xmlns:svg="http://www.w3.org/2000/svg"
   xmlns="http://www.w3.org/2000/svg"
   xmlns:sodipodi="http://sodipodi.sourceforge.net/DTD/sodipodi-0.dtd"
   xmlns:inkscape="http://www.inkscape.org/namespaces/inkscape"
   width="63.445503mm"
   height="25.675484mm"
   viewBox="0 0 63.445503 25.675484"
   version="1.1"
   id="svg8"
   inkscape:version="0.92.4 (5da689c313, 2019-01-14)"
   sodipodi:docname="cs-tagline-logo-neg.svg"
   style="shape-rendering:crispEdges"
   inkscape:export-filename="C:\work\checksig\checksig-custody.github.io-master\img\logos\text\cs-tagline-logo-neg-text.png"
   inkscape:export-xdpi="190.10001"
   inkscape:export-ydpi="190.10001">
  <defs
     id="defs2" />
  <sodipodi:namedview
     id="base"
     pagecolor="#ffffff"
     bordercolor="#666666"
     borderopacity="1.0"
     inkscape:pageopacity="0.0"
     inkscape:pageshadow="2"
     inkscape:zoom="2.8"
     inkscape:cx="148.52991"
     inkscape:cy="-34.230308"
     inkscape:document-units="mm"
     inkscape:current-layer="layer1"
     showgrid="false"
     borderlayer="true"
     showborder="true"
     inkscape:window-width="1817"
     inkscape:window-height="2131"
     inkscape:window-x="4208"
     inkscape:window-y="-9"
     inkscape:window-maximized="0"
     fit-margin-top="5"
     fit-margin-left="5"
     fit-margin-right="5"
     fit-margin-bottom="5"
     showguides="false" />
  <metadata
     id="metadata5">
    <rdf:RDF>
      <cc:Work
         rdf:about="">
        <dc:format>image/svg+xml</dc:format>
        <dc:type
           rdf:resource="http://purl.org/dc/dcmitype/StillImage" />
        <dc:title></dc:title>
      </cc:Work>
    </rdf:RDF>
  </metadata>
  <g
     inkscape:label="Layer 1"
     inkscape:groupmode="layer"
     id="layer1"
     transform="translate(-20.689775,-52.900507)">
    <flowRoot
       xml:space="preserve"
       id="flowRoot1938"
       style="font-style:normal;font-weight:normal;font-size:40px;line-height:1.25;font-family:sans-serif;letter-spacing:0px;word-spacing:0px;fill:#000000;fill-opacity:1;stroke:none"><flowRegion
         id="flowRegion1940"><rect
           id="rect1942"
           width="285"
           height="202.5"
           x="6.7857141"
           y="134.50955" /></flowRegion><flowPara
         id="flowPara1944" /></flowRoot>    <g
       aria-label="CheckSig"
       transform="matrix(0.26458333,0,0,0.26458333,14.772912,41.306194)"
       style="font-style:normal;font-weight:normal;font-size:40px;line-height:1.25;font-family:sans-serif;letter-spacing:0px;word-spacing:0px;fill:#000000;fill-opacity:1;stroke:none"
       id="flowRoot5663">
      <path
         d="m 56.860586,96.198663 q -4.44,0 -8,-1.84 -3.56,-1.88 -5.6,-5.2 -2,-3.36 -2,-7.6 0,-4.24 2,-7.56 2.04,-3.36 5.6,-5.2 3.56,-1.88 8,-1.88 4.08,0 7.28,1.44 3.2,1.44 5.28,4.16 l -5.96,5.32 q -2.6,-3.28 -6.12,-3.28 -2.96,0 -4.76,1.92 -1.8,1.88 -1.8,5.08 0,3.2 1.8,5.12 1.8,1.88 4.76,1.88 3.52,0 6.12,-3.28 l 5.96,5.32 q -2.08,2.72 -5.28,4.16 -3.2,1.44 -7.28,1.44 z"
         style="fill:#ffffff;fill-opacity:1"
         id="path880" />
      <path
         d="m 87.066211,73.278663 q 4.04,0 6.48,2.44 2.48,2.44 2.48,7.36 v 12.48 h -9.04 v -10.92 q 0,-3.76 -2.68,-3.76 -1.52,0 -2.48,1.08 -0.92,1.04 -0.92,3.32 v 10.28 h -9.04 v -29.68 h 9.04 v 9.56 q 2.52,-2.16 6.16,-2.16 z"
         style="fill:#ffffff;fill-opacity:1"
         id="path882" />
      <path
         d="m 123.58371,84.598663 q 0,0.2 -0.12,2.12 h -15.2 q 0.48,1.24 1.6,1.92 1.12,0.64 2.8,0.64 1.44,0 2.4,-0.36 1,-0.36 2.16,-1.24 l 4.72,4.76 q -3.2,3.52 -9.56,3.52 -3.96,0 -6.96,-1.44 -3,-1.48 -4.64,-4.08 -1.639999,-2.6 -1.639999,-5.84 0,-3.28 1.599999,-5.84 1.64,-2.6 4.44,-4.04 2.84,-1.44 6.36,-1.44 3.32,0 6.04,1.32 2.76,1.32 4.36,3.88 1.64,2.56 1.64,6.12 z m -11.96,-5.16 q -1.4,0 -2.32,0.76 -0.92,0.76 -1.2,2.16 h 7.04 q -0.28,-1.36 -1.2,-2.12 -0.92,-0.8 -2.32,-0.8 z"
         style="fill:#ffffff;fill-opacity:1"
         id="path884" />
      <path
         d="m 138.15746,95.958663 q -3.72,0 -6.68,-1.44 -2.92,-1.44 -4.6,-4.04 -1.64,-2.6 -1.64,-5.88 0,-3.28 1.64,-5.84 1.68,-2.6 4.6,-4.04 2.96,-1.44 6.68,-1.44 4,0 6.84,1.72 2.84,1.72 3.92,4.76 l -7,3.44 q -1.28,-2.88 -3.8,-2.88 -1.6,0 -2.68,1.12 -1.04,1.12 -1.04,3.16 0,2.08 1.04,3.2 1.08,1.12 2.68,1.12 2.52,0 3.8,-2.88 l 7,3.44 q -1.08,3.04 -3.92,4.76 -2.84,1.72 -6.84,1.72 z"
         style="fill:#ffffff;fill-opacity:1"
         id="path886" />
      <path
         d="m 161.48684,88.838663 -1.44,1.56 v 5.16 h -9.04 v -29.68 h 9.04 v 14.16 l 6.28,-6.36 h 10.68 l -9.04,9.48 9.76,12.4 h -10.92 z"
         style="fill:#ffffff;fill-opacity:1"
         id="path888" />
      <path
         d="m 190.24246,96.198663 q -3.48,0 -6.8,-0.76 -3.28,-0.8 -5.4,-2.12 l 3.04,-6.88 q 2,1.16 4.48,1.88 2.48,0.68 4.76,0.68 1.96,0 2.8,-0.36 0.84,-0.4 0.84,-1.16 0,-0.88 -1.12,-1.32 -1.08,-0.44 -3.6,-0.96 -3.24,-0.68 -5.4,-1.44 -2.16,-0.8 -3.76,-2.56 -1.6,-1.8 -1.6,-4.84 0,-2.64 1.48,-4.8 1.48,-2.16 4.4,-3.4 2.96,-1.24 7.16,-1.24 2.88,0 5.64,0.64 2.8,0.6 4.92,1.8 l -2.84,6.84 q -4.12,-2.08 -7.8,-2.08 -3.64,0 -3.64,1.76 0,0.84 1.08,1.28 1.08,0.4 3.56,0.88 3.2,0.6 5.4,1.4 2.2,0.76 3.8,2.52 1.64,1.76 1.64,4.8 0,2.64 -1.48,4.8 -1.48,2.12 -4.44,3.4 -2.92,1.24 -7.12,1.24 z"
         style="fill:#007ac0;fill-opacity:1"
         id="path890" />
      <path
         d="m 205.77246,73.678663 h 9.04 v 21.88 h -9.04 z m 4.52,-1.76 q -2.44,0 -3.96,-1.28 -1.48,-1.32 -1.48,-3.32 0,-2 1.48,-3.28 1.52,-1.32 3.96,-1.32 2.48,0 3.96,1.24 1.48,1.24 1.48,3.2 0,2.08 -1.48,3.44 -1.48,1.32 -3.96,1.32 z"
         style="fill:#007ac0;fill-opacity:1"
         id="path892" />
      <path
         d="m 243.25934,73.678663 v 17.52 q 0,6.24 -3.48,9.359997 -3.44,3.16 -9.84,3.16 -3.28,0 -6.12,-0.72 -2.84,-0.68 -4.84,-2 l 3.04,-6.159997 q 1.28,0.96 3.24,1.56 1.96,0.6 3.76,0.6 2.72,0 3.96,-1.16 1.24,-1.16 1.24,-3.4 v -0.4 q -2.04,2.32 -6.04,2.32 -2.8,0 -5.24,-1.28 -2.4,-1.32 -3.84,-3.72 -1.44,-2.44 -1.44,-5.56 0,-3.12 1.44,-5.52 1.44,-2.4 3.84,-3.68 2.44,-1.32 5.24,-1.32 4.48,0 6.48,2.88 v -2.48 z m -12.68,13.64 q 1.6,0 2.64,-0.96 1.08,-1 1.08,-2.56 0,-1.56 -1.08,-2.52 -1.04,-0.96 -2.64,-0.96 -1.64,0 -2.72,0.96 -1.04,0.96 -1.04,2.52 0,1.56 1.08,2.56 1.08,0.96 2.68,0.96 z"
         style="fill:#007ac0;fill-opacity:1"
         id="path894" />
    </g>
    <text
       xml:space="preserve"
       style="font-style:normal;font-weight:normal;font-size:10.58333302px;line-height:1.25;font-family:sans-serif;letter-spacing:0px;word-spacing:0px;fill:#000000;fill-opacity:1;stroke:none;stroke-width:0.26458332"
       x="80.824249"
       y="67.162292"
       id="text5683"><tspan
         sodipodi:role="line"
         id="tspan5681"
         x="80.824249"
         y="76.817787"
         style="stroke-width:0.26458332" /><tspan
         sodipodi:role="line"
         x="80.824249"
         y="90.046951"
         style="stroke-width:0.26458332"
         id="tspan5685" /></text>
    <g
       aria-label="Transparent Bitcoin Custody"
       transform="matrix(0.26458333,0,0,0.26458333,11.820172,95.101545)"
       style="font-style:italic;font-variant:normal;font-weight:normal;font-stretch:normal;font-size:12px;line-height:1.25;font-family:Verdana;-inkscape-font-specification:'Verdana, Italic';font-variant-ligatures:normal;font-variant-caps:normal;font-variant-numeric:normal;font-feature-settings:normal;text-align:center;letter-spacing:0px;word-spacing:0px;writing-mode:lr-tb;text-anchor:middle;fill:#ffffff;fill-opacity:1;stroke:none"
       id="flowRoot5691">
      <path
         d="m 67.091793,-92.632471 h -3.457032 l -1.985677,8.593751 h -1.302083 l 1.985677,-8.593751 h -3.457031 l 0.247395,-1.10026 h 8.216147 z"
         style="font-style:italic;font-variant:normal;font-weight:normal;font-stretch:normal;font-size:13.33333397px;font-family:Verdana;-inkscape-font-specification:'Verdana, Italic';font-variant-ligatures:normal;font-variant-caps:normal;font-variant-numeric:normal;font-feature-settings:normal;text-align:center;writing-mode:lr-tb;text-anchor:middle;fill:#ffffff;fill-opacity:1"
         id="path829" />
      <path
         d="m 72.19596,-90.021793 h -0.06511 q -0.260416,-0.06511 -0.488281,-0.09115 -0.221354,-0.03255 -0.540364,-0.03255 -0.61198,0 -1.217448,0.279948 -0.598959,0.273437 -1.152344,0.664062 l -1.171875,5.162761 h -1.236979 l 1.660156,-7.272136 h 1.236979 l -0.247396,1.074219 q 0.865886,-0.605469 1.464844,-0.839844 0.605469,-0.234375 1.158854,-0.234375 0.319011,0 0.46224,0.01953 0.143229,0.01302 0.416667,0.05859 z"
         style="font-style:italic;font-variant:normal;font-weight:normal;font-stretch:normal;font-size:13.33333397px;font-family:Verdana;-inkscape-font-specification:'Verdana, Italic';font-variant-ligatures:normal;font-variant-caps:normal;font-variant-numeric:normal;font-feature-settings:normal;text-align:center;writing-mode:lr-tb;text-anchor:middle;fill:#ffffff;fill-opacity:1"
         id="path831" />
      <path
         d="m 77.352211,-87.873356 q -1.002605,0.03906 -1.783855,0.15625 -0.774739,0.110677 -1.282552,0.325521 -0.527344,0.214844 -0.800781,0.585938 -0.273438,0.364583 -0.273438,0.911458 0,0.46875 0.319011,0.716146 0.31901,0.247396 0.989583,0.247396 0.592448,0 1.204427,-0.260417 0.61849,-0.266927 1.152344,-0.638021 z m -0.709636,3.059896 q -0.175781,0.104167 -0.481771,0.299479 -0.299479,0.188802 -0.611979,0.325521 -0.332031,0.14974 -0.742187,0.247396 -0.410157,0.104167 -0.944011,0.104167 -0.865885,0 -1.40625,-0.501302 -0.540365,-0.507813 -0.540365,-1.321615 0,-0.865885 0.377605,-1.458333 0.384114,-0.598959 1.132812,-0.976563 0.735677,-0.371094 1.770834,-0.533854 1.041666,-0.169271 2.369791,-0.208334 0.03906,-0.182291 0.0651,-0.3125 0.02604,-0.136718 0.02604,-0.279947 0,-0.3125 -0.123698,-0.507813 -0.123698,-0.195312 -0.351562,-0.3125 -0.227865,-0.117187 -0.533854,-0.15625 -0.29948,-0.04557 -0.664063,-0.04557 -0.553385,0 -1.263021,0.182292 -0.709635,0.175781 -1.152344,0.351562 h -0.0651 l 0.240886,-1.223958 q 0.371093,-0.09766 1.087239,-0.221354 0.716146,-0.123698 1.373698,-0.123698 1.354167,0 2.03125,0.423177 0.677084,0.423177 0.677084,1.341146 0,0.175781 -0.03255,0.377604 -0.02604,0.195312 -0.06511,0.371094 l -1.139323,4.934896 h -1.217448 z"
         style="font-style:italic;font-variant:normal;font-weight:normal;font-stretch:normal;font-size:13.33333397px;font-family:Verdana;-inkscape-font-specification:'Verdana, Italic';font-variant-ligatures:normal;font-variant-caps:normal;font-variant-numeric:normal;font-feature-settings:normal;text-align:center;writing-mode:lr-tb;text-anchor:middle;fill:#ffffff;fill-opacity:1"
         id="path833" />
      <path
         d="m 87.33268,-89.6507 q 0,0.15625 -0.03255,0.423177 -0.02604,0.266928 -0.07813,0.46875 l -1.09375,4.720053 h -1.223958 l 0.957031,-4.140625 q 0.07813,-0.345052 0.117187,-0.598959 0.04557,-0.260416 0.04557,-0.514323 0,-0.546875 -0.273437,-0.820312 -0.266927,-0.279948 -0.970052,-0.279948 -0.494792,0 -1.09375,0.273437 -0.592448,0.273438 -1.158855,0.651042 l -1.25651,5.429688 h -1.223959 l 1.679688,-7.272136 h 1.223958 l -0.188802,0.807292 q 0.696615,-0.488282 1.302084,-0.748698 0.611979,-0.260417 1.25651,-0.260417 0.950521,0 1.477865,0.481771 0.533854,0.47526 0.533854,1.380208 z"
         style="font-style:italic;font-variant:normal;font-weight:normal;font-stretch:normal;font-size:13.33333397px;font-family:Verdana;-inkscape-font-specification:'Verdana, Italic';font-variant-ligatures:normal;font-variant-caps:normal;font-variant-numeric:normal;font-feature-settings:normal;text-align:center;writing-mode:lr-tb;text-anchor:middle;fill:#ffffff;fill-opacity:1"
         id="path835" />
      <path
         d="m 90.757159,-83.862939 q -0.813802,0 -1.458333,-0.201823 -0.638021,-0.201823 -1.067709,-0.436198 l 0.273438,-1.308594 h 0.0651 q 0.136719,0.117188 0.351562,0.279948 0.221355,0.15625 0.559896,0.3125 0.30599,0.14974 0.696615,0.260417 0.397135,0.104167 0.846354,0.104167 0.917969,0 1.438802,-0.338542 0.520834,-0.338542 0.520834,-0.996094 0,-0.345052 -0.266928,-0.527344 -0.266927,-0.188802 -0.768229,-0.305989 -0.253906,-0.05859 -0.611979,-0.130209 -0.351562,-0.07161 -0.716146,-0.16927 -0.761719,-0.214844 -1.126302,-0.61849 -0.364583,-0.410156 -0.364583,-0.996094 0,-0.507812 0.221354,-0.950521 0.221354,-0.442708 0.657552,-0.813802 0.416667,-0.351562 1.061198,-0.566406 0.644531,-0.221354 1.432292,-0.221354 0.651041,0 1.295573,0.16276 0.651041,0.162761 1.061198,0.403646 l -0.260417,1.25 h -0.0651 q -0.104167,-0.08464 -0.319011,-0.227864 -0.208333,-0.14323 -0.533854,-0.292969 -0.279948,-0.123698 -0.657552,-0.214844 -0.371094,-0.09115 -0.77474,-0.09115 -0.813802,0 -1.321614,0.345052 -0.507813,0.338542 -0.507813,0.93099 0,0.325521 0.247396,0.546875 0.247396,0.214844 0.755208,0.338542 0.319011,0.07813 0.664063,0.149739 0.351563,0.0651 0.677083,0.143229 0.755209,0.188802 1.132813,0.585938 0.384115,0.397135 0.384115,0.996094 0,0.501302 -0.240886,0.983073 -0.234375,0.47526 -0.683594,0.826823 -0.462239,0.371093 -1.119791,0.579427 -0.657552,0.208333 -1.477865,0.208333 z"
         style="font-style:italic;font-variant:normal;font-weight:normal;font-stretch:normal;font-size:13.33333397px;font-family:Verdana;-inkscape-font-specification:'Verdana, Italic';font-variant-ligatures:normal;font-variant-caps:normal;font-variant-numeric:normal;font-feature-settings:normal;text-align:center;writing-mode:lr-tb;text-anchor:middle;fill:#ffffff;fill-opacity:1"
         id="path837" />
      <path
         d="m 102.82747,-89.012679 q 0,1.080729 -0.33854,2.03125 -0.33203,0.950521 -0.88542,1.614584 -0.55989,0.683594 -1.30208,1.080729 -0.74219,0.390625 -1.582033,0.390625 -0.585938,0 -1.08073,-0.136719 -0.488281,-0.130208 -0.891927,-0.384114 l -0.703125,3.059896 h -1.223958 l 2.298177,-9.954428 h 1.223959 l -0.175782,0.761719 q 0.605469,-0.423177 1.191407,-0.690104 0.585937,-0.273438 1.295572,-0.273438 1.0612,0 1.61458,0.657552 0.5599,0.657552 0.5599,1.842448 z m -1.28255,0.234375 q 0,-0.774739 -0.33854,-1.191406 -0.33855,-0.423177 -1.08073,-0.423177 -0.540368,0 -1.119795,0.266927 -0.579427,0.266927 -1.080729,0.605469 l -0.950521,4.121094 q 0.423177,0.227864 0.807292,0.338541 0.384114,0.110677 0.930989,0.110677 0.670573,0 1.204427,-0.32552 0.540367,-0.325521 0.891927,-0.846355 0.37109,-0.546875 0.55339,-1.217448 0.18229,-0.670573 0.18229,-1.438802 z"
         style="font-style:italic;font-variant:normal;font-weight:normal;font-stretch:normal;font-size:13.33333397px;font-family:Verdana;-inkscape-font-specification:'Verdana, Italic';font-variant-ligatures:normal;font-variant-caps:normal;font-variant-numeric:normal;font-feature-settings:normal;text-align:center;writing-mode:lr-tb;text-anchor:middle;fill:#ffffff;fill-opacity:1"
         id="path839" />
      <path
         d="m 109.07096,-87.873356 q -1.0026,0.03906 -1.78385,0.15625 -0.77474,0.110677 -1.28256,0.325521 -0.52734,0.214844 -0.80078,0.585938 -0.27343,0.364583 -0.27343,0.911458 0,0.46875 0.31901,0.716146 0.31901,0.247396 0.98958,0.247396 0.59245,0 1.20443,-0.260417 0.61849,-0.266927 1.15234,-0.638021 z m -0.70963,3.059896 q -0.17579,0.104167 -0.48178,0.299479 -0.29947,0.188802 -0.61197,0.325521 -0.33204,0.14974 -0.74219,0.247396 -0.41016,0.104167 -0.94401,0.104167 -0.86589,0 -1.40625,-0.501302 -0.54037,-0.507813 -0.54037,-1.321615 0,-0.865885 0.37761,-1.458333 0.38411,-0.598959 1.13281,-0.976563 0.73568,-0.371094 1.77083,-0.533854 1.04167,-0.169271 2.36979,-0.208334 0.0391,-0.182291 0.0651,-0.3125 0.026,-0.136718 0.026,-0.279947 0,-0.3125 -0.1237,-0.507813 -0.1237,-0.195312 -0.35156,-0.3125 -0.22786,-0.117187 -0.53385,-0.15625 -0.29948,-0.04557 -0.66407,-0.04557 -0.55338,0 -1.26302,0.182292 -0.70963,0.175781 -1.15234,0.351562 h -0.0651 l 0.24089,-1.223958 q 0.37109,-0.09766 1.08724,-0.221354 0.71615,-0.123698 1.3737,-0.123698 1.35416,0 2.03125,0.423177 0.67708,0.423177 0.67708,1.341146 0,0.175781 -0.0326,0.377604 -0.026,0.195312 -0.0651,0.371094 l -1.13932,4.934896 h -1.21745 z"
         style="font-style:italic;font-variant:normal;font-weight:normal;font-stretch:normal;font-size:13.33333397px;font-family:Verdana;-inkscape-font-specification:'Verdana, Italic';font-variant-ligatures:normal;font-variant-caps:normal;font-variant-numeric:normal;font-feature-settings:normal;text-align:center;writing-mode:lr-tb;text-anchor:middle;fill:#ffffff;fill-opacity:1"
         id="path841" />
      <path
         d="m 117.63867,-90.021793 h -0.0651 q -0.26042,-0.06511 -0.48828,-0.09115 -0.22136,-0.03255 -0.54037,-0.03255 -0.61198,0 -1.21745,0.279948 -0.59895,0.273437 -1.15234,0.664062 l -1.17188,5.162761 h -1.23697 l 1.66015,-7.272136 h 1.23698 l -0.24739,1.074219 q 0.86588,-0.605469 1.46484,-0.839844 0.60547,-0.234375 1.15885,-0.234375 0.31901,0 0.46224,0.01953 0.14323,0.01302 0.41667,0.05859 z"
         style="font-style:italic;font-variant:normal;font-weight:normal;font-stretch:normal;font-size:13.33333397px;font-family:Verdana;-inkscape-font-specification:'Verdana, Italic';font-variant-ligatures:normal;font-variant-caps:normal;font-variant-numeric:normal;font-feature-settings:normal;text-align:center;writing-mode:lr-tb;text-anchor:middle;fill:#ffffff;fill-opacity:1"
         id="path843" />
      <path
         d="m 123.35482,-88.465804 q 0.0326,-0.188802 0.0456,-0.31901 0.013,-0.130209 0.013,-0.286459 0,-0.696614 -0.38411,-1.087239 -0.37761,-0.390625 -1.21745,-0.390625 -0.92448,0 -1.64063,0.572917 -0.71614,0.572916 -0.97005,1.510416 z m -2.44792,4.596355 q -1.51042,0 -2.36979,-0.709636 -0.85938,-0.709635 -0.85938,-2.076823 0,-1.998698 1.26302,-3.424479 1.26303,-1.432292 3.125,-1.432292 1.23698,0 1.89454,0.61849 0.65755,0.611979 0.65755,1.72526 0,0.195313 -0.0586,0.61849 -0.0521,0.423177 -0.17578,0.983073 h -5.35807 q -0.0391,0.188802 -0.0586,0.371094 -0.013,0.182291 -0.013,0.338541 0,0.917969 0.55989,1.445313 0.5599,0.520833 1.58854,0.520833 0.71615,0 1.47136,-0.279948 0.76172,-0.279948 1.27604,-0.63151 h 0.0716 l -0.26692,1.321614 q -0.32552,0.117188 -0.58594,0.214844 -0.26042,0.09766 -0.66406,0.195313 -0.40365,0.09766 -0.71615,0.149739 -0.3125,0.05208 -0.78125,0.05208 z"
         style="font-style:italic;font-variant:normal;font-weight:normal;font-stretch:normal;font-size:13.33333397px;font-family:Verdana;-inkscape-font-specification:'Verdana, Italic';font-variant-ligatures:normal;font-variant-caps:normal;font-variant-numeric:normal;font-feature-settings:normal;text-align:center;writing-mode:lr-tb;text-anchor:middle;fill:#ffffff;fill-opacity:1"
         id="path845" />
      <path
         d="m 132.69726,-89.6507 q 0,0.15625 -0.0325,0.423177 -0.026,0.266928 -0.0781,0.46875 l -1.09375,4.720053 h -1.22396 l 0.95703,-4.140625 q 0.0781,-0.345052 0.11719,-0.598959 0.0456,-0.260416 0.0456,-0.514323 0,-0.546875 -0.27344,-0.820312 -0.26692,-0.279948 -0.97005,-0.279948 -0.49479,0 -1.09375,0.273437 -0.59245,0.273438 -1.15885,0.651042 l -1.25651,5.429688 h -1.22396 l 1.67968,-7.272136 h 1.22396 l -0.1888,0.807292 q 0.69662,-0.488282 1.30208,-0.748698 0.61198,-0.260417 1.25652,-0.260417 0.95052,0 1.47786,0.481771 0.53385,0.47526 0.53385,1.380208 z"
         style="font-style:italic;font-variant:normal;font-weight:normal;font-stretch:normal;font-size:13.33333397px;font-family:Verdana;-inkscape-font-specification:'Verdana, Italic';font-variant-ligatures:normal;font-variant-caps:normal;font-variant-numeric:normal;font-feature-settings:normal;text-align:center;writing-mode:lr-tb;text-anchor:middle;fill:#ffffff;fill-opacity:1"
         id="path847" />
      <path
         d="m 139.30534,-91.310856 -0.22136,0.989583 h -2.52604 l -0.78125,3.352865 q -0.0651,0.253906 -0.11719,0.585938 -0.0521,0.325521 -0.0521,0.520833 0,0.47526 0.24089,0.709636 0.24088,0.227864 0.89192,0.227864 0.26693,0 0.63151,-0.09115 0.3711,-0.09115 0.50131,-0.143229 h 0.0651 l -0.22787,1.054688 q -0.36458,0.09114 -0.78125,0.149739 -0.41015,0.05859 -0.72916,0.05859 -0.89844,0 -1.39323,-0.390625 -0.48828,-0.397135 -0.48828,-1.25 0,-0.208333 0.026,-0.410156 0.0325,-0.208334 0.0846,-0.46875 l 0.90495,-3.906251 h -0.82682 l 0.22135,-0.989583 h 0.82683 l 0.48828,-2.089844 h 1.22396 l -0.48828,2.089844 z"
         style="font-style:italic;font-variant:normal;font-weight:normal;font-stretch:normal;font-size:13.33333397px;font-family:Verdana;-inkscape-font-specification:'Verdana, Italic';font-variant-ligatures:normal;font-variant-caps:normal;font-variant-numeric:normal;font-feature-settings:normal;text-align:center;writing-mode:lr-tb;text-anchor:middle;fill:#ffffff;fill-opacity:1"
         id="path849" />
      <path
         d="m 150.4707,-84.81997 q -0.63151,0.423177 -1.32162,0.605469 -0.6901,0.175781 -1.69921,0.175781 h -3.5612 l 2.23307,-9.694011 h 2.78646 q 1.0612,0 1.57552,0.07161 0.52083,0.07161 0.95052,0.332031 0.35807,0.221354 0.53385,0.566406 0.1823,0.338542 0.1823,0.755208 0,0.839844 -0.47526,1.484375 -0.47526,0.644532 -1.31511,0.996094 v 0.05208 q 0.78125,0.175781 1.19141,0.657552 0.41666,0.481771 0.41666,1.236979 0,0.826823 -0.41666,1.56901 -0.41016,0.735678 -1.08073,1.191407 z m 0.27995,-6.829428 q 0,-0.273437 -0.0911,-0.449218 -0.0911,-0.182292 -0.26042,-0.29948 -0.27343,-0.182291 -0.68359,-0.227864 -0.41016,-0.05208 -1.0612,-0.05208 h -1.47135 l -0.66406,2.877605 h 1.6927 q 0.5599,0 0.97657,-0.07813 0.41666,-0.08464 0.72916,-0.260417 0.40365,-0.234375 0.61849,-0.664062 0.21485,-0.436198 0.21485,-0.846355 z m -0.14323,4.160157 q 0,-0.364584 -0.1237,-0.585938 -0.1237,-0.227864 -0.44271,-0.423177 -0.26042,-0.16276 -0.67057,-0.214844 -0.40365,-0.05208 -1.1263,-0.05208 h -1.95964 l -0.85286,3.671875 h 1.77734 q 0.86589,0 1.40625,-0.09115 0.54688,-0.09766 0.94401,-0.338541 0.51432,-0.30599 0.78125,-0.833334 0.26693,-0.533854 0.26693,-1.132812 z"
         style="font-style:italic;font-variant:normal;font-weight:normal;font-stretch:normal;font-size:13.33333397px;font-family:Verdana;-inkscape-font-specification:'Verdana, Italic';font-variant-ligatures:normal;font-variant-caps:normal;font-variant-numeric:normal;font-feature-settings:normal;text-align:center;writing-mode:lr-tb;text-anchor:middle;fill:#ffffff;fill-opacity:1"
         id="path851" />
      <path
         d="m 156.50586,-93.797835 -0.29297,1.269531 h -1.38021 l 0.29297,-1.269531 z m -0.65105,2.486979 -1.67968,7.272136 h -1.22396 l 1.67968,-7.272136 z"
         style="font-style:italic;font-variant:normal;font-weight:normal;font-stretch:normal;font-size:13.33333397px;font-family:Verdana;-inkscape-font-specification:'Verdana, Italic';font-variant-ligatures:normal;font-variant-caps:normal;font-variant-numeric:normal;font-feature-settings:normal;text-align:center;writing-mode:lr-tb;text-anchor:middle;fill:#ffffff;fill-opacity:1"
         id="path853" />
      <path
         d="m 162.06576,-91.310856 -0.22136,0.989583 h -2.52604 l -0.78125,3.352865 q -0.0651,0.253906 -0.11718,0.585938 -0.0521,0.325521 -0.0521,0.520833 0,0.47526 0.24089,0.709636 0.24088,0.227864 0.89192,0.227864 0.26693,0 0.63151,-0.09115 0.3711,-0.09115 0.50131,-0.143229 h 0.0651 l -0.22786,1.054688 q -0.36459,0.09114 -0.78125,0.149739 -0.41016,0.05859 -0.72917,0.05859 -0.89844,0 -1.39323,-0.390625 -0.48828,-0.397135 -0.48828,-1.25 0,-0.208333 0.026,-0.410156 0.0326,-0.208334 0.0846,-0.46875 l 0.90494,-3.906251 h -0.82682 l 0.22136,-0.989583 h 0.82682 l 0.48828,-2.089844 h 1.22396 l -0.48828,2.089844 z"
         style="font-style:italic;font-variant:normal;font-weight:normal;font-stretch:normal;font-size:13.33333397px;font-family:Verdana;-inkscape-font-specification:'Verdana, Italic';font-variant-ligatures:normal;font-variant-caps:normal;font-variant-numeric:normal;font-feature-settings:normal;text-align:center;writing-mode:lr-tb;text-anchor:middle;fill:#ffffff;fill-opacity:1"
         id="path855" />
      <path
         d="m 165.02149,-83.87596 q -0.69011,0 -1.22396,-0.16276 -0.52735,-0.162761 -0.92448,-0.514323 -0.38412,-0.338542 -0.59245,-0.852865 -0.20833,-0.514323 -0.20833,-1.197916 0,-1.022136 0.31901,-1.907553 0.31901,-0.885416 0.90494,-1.555989 0.56641,-0.651042 1.39974,-1.028646 0.83334,-0.384115 1.79688,-0.384115 0.63802,0 1.19792,0.175781 0.5664,0.175782 0.99609,0.416667 l -0.26693,1.321615 h -0.0716 q -0.13021,-0.117188 -0.32552,-0.273438 -0.19532,-0.15625 -0.46224,-0.292968 -0.26693,-0.14323 -0.59245,-0.234375 -0.32552,-0.09766 -0.74219,-0.09766 -1.26302,0 -2.0638,1.067709 -0.79427,1.067708 -0.79427,2.597656 0,0.917969 0.46875,1.41276 0.47526,0.494792 1.34766,0.494792 0.41015,0 0.82031,-0.117187 0.41015,-0.117188 0.69661,-0.253907 0.31901,-0.149739 0.59245,-0.31901 0.27344,-0.169271 0.39714,-0.253906 h 0.0716 l -0.26042,1.334635 q -0.5664,0.253906 -1.19791,0.442709 -0.63151,0.182291 -1.28255,0.182291 z"
         style="font-style:italic;font-variant:normal;font-weight:normal;font-stretch:normal;font-size:13.33333397px;font-family:Verdana;-inkscape-font-specification:'Verdana, Italic';font-variant-ligatures:normal;font-variant-caps:normal;font-variant-numeric:normal;font-feature-settings:normal;text-align:center;writing-mode:lr-tb;text-anchor:middle;fill:#ffffff;fill-opacity:1"
         id="path857" />
      <path
         d="m 175.97201,-88.739241 q 0,0.976562 -0.29948,1.875 -0.29948,0.898437 -0.84636,1.5625 -0.5664,0.690104 -1.30859,1.080729 -0.74219,0.384115 -1.73177,0.384115 -1.29557,0 -2.02474,-0.735677 -0.72266,-0.742188 -0.72266,-2.044271 0,-0.976563 0.29297,-1.86198 0.29948,-0.885416 0.85938,-1.57552 0.54036,-0.664063 1.32161,-1.061198 0.78776,-0.397136 1.71875,-0.397136 1.25651,0 1.9987,0.716146 0.74219,0.716146 0.74219,2.057292 z m -1.99219,2.747396 q 0.35156,-0.520834 0.53385,-1.204427 0.1888,-0.683594 0.1888,-1.445313 0,-0.911458 -0.43619,-1.380208 -0.4362,-0.46875 -1.23047,-0.46875 -0.63151,0 -1.13281,0.305989 -0.50131,0.299479 -0.86589,0.826823 -0.35156,0.514323 -0.54036,1.204427 -0.18881,0.690104 -0.18881,1.432292 0,0.898438 0.4362,1.380208 0.4362,0.481771 1.23698,0.481771 0.625,0 1.13281,-0.299479 0.50782,-0.299479 0.86589,-0.833333 z"
         style="font-style:italic;font-variant:normal;font-weight:normal;font-stretch:normal;font-size:13.33333397px;font-family:Verdana;-inkscape-font-specification:'Verdana, Italic';font-variant-ligatures:normal;font-variant-caps:normal;font-variant-numeric:normal;font-feature-settings:normal;text-align:center;writing-mode:lr-tb;text-anchor:middle;fill:#ffffff;fill-opacity:1"
         id="path859" />
      <path
         d="m 180.49024,-93.797835 -0.29297,1.269531 h -1.38021 l 0.29297,-1.269531 z m -0.65104,2.486979 -1.67969,7.272136 h -1.22396 l 1.67969,-7.272136 z"
         style="font-style:italic;font-variant:normal;font-weight:normal;font-stretch:normal;font-size:13.33333397px;font-family:Verdana;-inkscape-font-specification:'Verdana, Italic';font-variant-ligatures:normal;font-variant-caps:normal;font-variant-numeric:normal;font-feature-settings:normal;text-align:center;writing-mode:lr-tb;text-anchor:middle;fill:#ffffff;fill-opacity:1"
         id="path861" />
      <path
         d="m 187.87956,-89.6507 q 0,0.15625 -0.0325,0.423177 -0.026,0.266928 -0.0781,0.46875 l -1.09375,4.720053 h -1.22395 l 0.95703,-4.140625 q 0.0781,-0.345052 0.11718,-0.598959 0.0456,-0.260416 0.0456,-0.514323 0,-0.546875 -0.27344,-0.820312 -0.26693,-0.279948 -0.97005,-0.279948 -0.49479,0 -1.09375,0.273437 -0.59245,0.273438 -1.15886,0.651042 l -1.25651,5.429688 h -1.22396 l 1.67969,-7.272136 h 1.22396 l -0.1888,0.807292 q 0.69661,-0.488282 1.30208,-0.748698 0.61198,-0.260417 1.25651,-0.260417 0.95052,0 1.47787,0.481771 0.53385,0.47526 0.53385,1.380208 z"
         style="font-style:italic;font-variant:normal;font-weight:normal;font-stretch:normal;font-size:13.33333397px;font-family:Verdana;-inkscape-font-specification:'Verdana, Italic';font-variant-ligatures:normal;font-variant-caps:normal;font-variant-numeric:normal;font-feature-settings:normal;text-align:center;writing-mode:lr-tb;text-anchor:middle;fill:#ffffff;fill-opacity:1"
         id="path863" />
      <path
         d="m 198.1595,-83.862939 q -1.84245,0 -2.89062,-0.950521 -1.04818,-0.957031 -1.04818,-2.708333 0,-1.341146 0.40364,-2.5 0.40365,-1.158855 1.15886,-2.03125 0.7487,-0.859376 1.84245,-1.354167 1.09375,-0.501302 2.4414,-0.501302 0.83985,0 1.58854,0.208333 0.7487,0.201823 1.53646,0.644531 l -0.29297,1.458334 h -0.0976 q -0.21485,-0.214844 -0.4362,-0.397136 -0.21484,-0.188802 -0.65104,-0.410156 -0.35807,-0.188802 -0.85287,-0.3125 -0.49479,-0.130208 -1.09375,-0.130208 -0.91145,0 -1.67317,0.384114 -0.76172,0.377604 -1.32162,1.061198 -0.54687,0.664063 -0.85937,1.614584 -0.3125,0.95052 -0.3125,2.024739 0,1.341146 0.69661,2.089844 0.69662,0.742188 2.01172,0.742188 0.61849,0 1.17188,-0.136719 0.55989,-0.143229 1.01562,-0.358073 0.42318,-0.201823 0.76172,-0.423177 0.33854,-0.221354 0.57943,-0.410156 h 0.0911 l -0.30599,1.497396 q -0.68359,0.345052 -1.57552,0.625 -0.88541,0.273437 -1.88802,0.273437 z"
         style="font-style:italic;font-variant:normal;font-weight:normal;font-stretch:normal;font-size:13.33333397px;font-family:Verdana;-inkscape-font-specification:'Verdana, Italic';font-variant-ligatures:normal;font-variant-caps:normal;font-variant-numeric:normal;font-feature-settings:normal;text-align:center;writing-mode:lr-tb;text-anchor:middle;fill:#ffffff;fill-opacity:1"
         id="path865" />
      <path
         d="m 210.75065,-91.310856 -1.67969,7.272136 h -1.22395 l 0.1888,-0.807292 q -0.69662,0.475261 -1.30209,0.742188 -0.59895,0.266927 -1.26953,0.266927 -0.9375,0 -1.46484,-0.46875 -0.52734,-0.475261 -0.52734,-1.380209 0,-0.221354 0.026,-0.429687 0.0325,-0.208334 0.0846,-0.475261 l 1.08724,-4.720052 h 1.22396 l -0.95703,4.140625 q -0.0586,0.253906 -0.11068,0.579427 -0.0521,0.325521 -0.0521,0.514323 0,0.559896 0.27995,0.839844 0.28646,0.279948 0.97005,0.279948 0.48177,0 1.10026,-0.279948 0.625,-0.279948 1.15234,-0.644531 l 1.25,-5.429688 z"
         style="font-style:italic;font-variant:normal;font-weight:normal;font-stretch:normal;font-size:13.33333397px;font-family:Verdana;-inkscape-font-specification:'Verdana, Italic';font-variant-ligatures:normal;font-variant-caps:normal;font-variant-numeric:normal;font-feature-settings:normal;text-align:center;writing-mode:lr-tb;text-anchor:middle;fill:#ffffff;fill-opacity:1"
         id="path867" />
      <path
         d="m 213.75195,-83.862939 q -0.8138,0 -1.45833,-0.201823 -0.63802,-0.201823 -1.06771,-0.436198 l 0.27344,-1.308594 h 0.0651 q 0.13672,0.117188 0.35157,0.279948 0.22135,0.15625 0.55989,0.3125 0.30599,0.14974 0.69662,0.260417 0.39713,0.104167 0.84635,0.104167 0.91797,0 1.4388,-0.338542 0.52084,-0.338542 0.52084,-0.996094 0,-0.345052 -0.26693,-0.527344 -0.26693,-0.188802 -0.76823,-0.305989 -0.25391,-0.05859 -0.61198,-0.130209 -0.35156,-0.07161 -0.71614,-0.16927 -0.76172,-0.214844 -1.12631,-0.61849 -0.36458,-0.410156 -0.36458,-0.996094 0,-0.507812 0.22135,-0.950521 0.22136,-0.442708 0.65756,-0.813802 0.41666,-0.351562 1.06119,-0.566406 0.64454,-0.221354 1.4323,-0.221354 0.65104,0 1.29557,0.16276 0.65104,0.162761 1.0612,0.403646 l -0.26042,1.25 h -0.0651 q -0.10417,-0.08464 -0.31901,-0.227864 -0.20834,-0.14323 -0.53386,-0.292969 -0.27995,-0.123698 -0.65755,-0.214844 -0.37109,-0.09115 -0.77474,-0.09115 -0.8138,0 -1.32162,0.345052 -0.50781,0.338542 -0.50781,0.93099 0,0.325521 0.2474,0.546875 0.24739,0.214844 0.75521,0.338542 0.31901,0.07813 0.66406,0.149739 0.35156,0.0651 0.67708,0.143229 0.75521,0.188802 1.13281,0.585938 0.38412,0.397135 0.38412,0.996094 0,0.501302 -0.24089,0.983073 -0.23437,0.47526 -0.68359,0.826823 -0.46224,0.371093 -1.11979,0.579427 -0.65755,0.208333 -1.47787,0.208333 z"
         style="font-style:italic;font-variant:normal;font-weight:normal;font-stretch:normal;font-size:13.33333397px;font-family:Verdana;-inkscape-font-specification:'Verdana, Italic';font-variant-ligatures:normal;font-variant-caps:normal;font-variant-numeric:normal;font-feature-settings:normal;text-align:center;writing-mode:lr-tb;text-anchor:middle;fill:#ffffff;fill-opacity:1"
         id="path869" />
      <path
         d="m 223.88867,-91.310856 -0.22135,0.989583 h -2.52604 l -0.78125,3.352865 q -0.0651,0.253906 -0.11719,0.585938 -0.0521,0.325521 -0.0521,0.520833 0,0.47526 0.24088,0.709636 0.24089,0.227864 0.89193,0.227864 0.26693,0 0.63151,-0.09115 0.37109,-0.09115 0.5013,-0.143229 h 0.0651 l -0.22787,1.054688 q -0.36458,0.09114 -0.78125,0.149739 -0.41016,0.05859 -0.72917,0.05859 -0.89843,0 -1.39323,-0.390625 -0.48828,-0.397135 -0.48828,-1.25 0,-0.208333 0.026,-0.410156 0.0326,-0.208334 0.0846,-0.46875 l 0.90495,-3.906251 h -0.82682 l 0.22135,-0.989583 h 0.82682 l 0.48828,-2.089844 h 1.22396 l -0.48828,2.089844 z"
         style="font-style:italic;font-variant:normal;font-weight:normal;font-stretch:normal;font-size:13.33333397px;font-family:Verdana;-inkscape-font-specification:'Verdana, Italic';font-variant-ligatures:normal;font-variant-caps:normal;font-variant-numeric:normal;font-feature-settings:normal;text-align:center;writing-mode:lr-tb;text-anchor:middle;fill:#ffffff;fill-opacity:1"
         id="path871" />
      <path
         d="m 230.8418,-88.739241 q 0,0.976562 -0.29948,1.875 -0.29948,0.898437 -0.84635,1.5625 -0.56641,0.690104 -1.30859,1.080729 -0.74219,0.384115 -1.73178,0.384115 -1.29557,0 -2.02473,-0.735677 -0.72266,-0.742188 -0.72266,-2.044271 0,-0.976563 0.29297,-1.86198 0.29948,-0.885416 0.85937,-1.57552 0.54037,-0.664063 1.32162,-1.061198 0.78776,-0.397136 1.71875,-0.397136 1.25651,0 1.9987,0.716146 0.74218,0.716146 0.74218,2.057292 z m -1.99218,2.747396 q 0.35156,-0.520834 0.53385,-1.204427 0.1888,-0.683594 0.1888,-1.445313 0,-0.911458 -0.4362,-1.380208 -0.43619,-0.46875 -1.23047,-0.46875 -0.63151,0 -1.13281,0.305989 -0.5013,0.299479 -0.86588,0.826823 -0.35157,0.514323 -0.54037,1.204427 -0.1888,0.690104 -0.1888,1.432292 0,0.898438 0.4362,1.380208 0.4362,0.481771 1.23698,0.481771 0.625,0 1.13281,-0.299479 0.50781,-0.299479 0.86589,-0.833333 z"
         style="font-style:italic;font-variant:normal;font-weight:normal;font-stretch:normal;font-size:13.33333397px;font-family:Verdana;-inkscape-font-specification:'Verdana, Italic';font-variant-ligatures:normal;font-variant-caps:normal;font-variant-numeric:normal;font-feature-settings:normal;text-align:center;writing-mode:lr-tb;text-anchor:middle;fill:#ffffff;fill-opacity:1"
         id="path873" />
      <path
         d="m 240.03451,-94.168929 -2.34375,10.130209 h -1.22396 l 0.17578,-0.761719 q -0.82682,0.566406 -1.33464,0.761719 -0.5013,0.201823 -1.09375,0.201823 -1.02864,0 -1.63411,-0.651042 -0.59896,-0.651042 -0.59896,-1.894531 0,-1.048177 0.32552,-1.979167 0.32552,-0.9375 0.88542,-1.640625 0.55338,-0.696615 1.30859,-1.100261 0.75521,-0.410156 1.60156,-0.410156 0.57943,0 1.06771,0.123698 0.48828,0.123698 0.91146,0.371094 l 0.72917,-3.151042 z m -2.1875,4.166667 q -0.4362,-0.227865 -0.85938,-0.332031 -0.41667,-0.110678 -0.89193,-0.110678 -0.67708,0 -1.21093,0.325521 -0.52735,0.325521 -0.90495,0.891927 -0.34505,0.514323 -0.53386,1.23698 -0.18229,0.722656 -0.18229,1.399739 0,0.794271 0.33854,1.217448 0.34506,0.416667 1.11329,0.416667 0.54687,0 1.11328,-0.273438 0.57291,-0.273437 1.05468,-0.598958 z"
         style="font-style:italic;font-variant:normal;font-weight:normal;font-stretch:normal;font-size:13.33333397px;font-family:Verdana;-inkscape-font-specification:'Verdana, Italic';font-variant-ligatures:normal;font-variant-caps:normal;font-variant-numeric:normal;font-feature-settings:normal;text-align:center;writing-mode:lr-tb;text-anchor:middle;fill:#ffffff;fill-opacity:1"
         id="path875" />
      <path
         d="m 241.41472,-81.356428 h -1.34766 l 2.11589,-3.105469 -1.31511,-6.848959 h 1.25651 l 1.02865,5.410157 3.47656,-5.410157 h 1.33464 z"
         style="font-style:italic;font-variant:normal;font-weight:normal;font-stretch:normal;font-size:13.33333397px;font-family:Verdana;-inkscape-font-specification:'Verdana, Italic';font-variant-ligatures:normal;font-variant-caps:normal;font-variant-numeric:normal;font-feature-settings:normal;text-align:center;writing-mode:lr-tb;text-anchor:middle;fill:#ffffff;fill-opacity:1"
         id="path877" />
    </g>
  </g>
</svg>
